<?xml version="1.0" encoding="UTF-8"?>
<svg id="Layer_1" data-name="Layer 1" xmlns="http://www.w3.org/2000/svg" viewBox="0 0 1401.93 510.74">
  <defs>
    <style>
      .cls-1 {
        fill: #ffdb70;
      }

      .cls-1, .cls-2 {
        fill-rule: evenodd;
        stroke-width: 0px;
      }

      .cls-2 {
        fill: none;
      }
    </style>
  </defs>
  <path class="cls-2" d="m0,0h1401.93v510.74H0V0Z"/>
  <path class="cls-1" d="m509.28,231.04l58-168.44h26.62l59.59,168.44h-24.63l-17.08-48.47h-61.97l-15.89,48.47h-24.63Zm45.29-68.33h49.66l-22.64-70.72-27.02,70.72h0Zm102.5,68.33V62.59h27.01l81.04,135.87V62.59h21.06v168.44h-24.62l-82.64-133.48v133.49h-21.85s0,0,0,0Zm139.85,0l58-168.44h26.62l59.59,168.44h-24.63l-17.09-48.47h-61.97l-15.88,48.47h-24.63Zm45.69-68.33h49.26l-22.64-70.72-26.62,70.72Zm111.63,68.33V62.59h23.04v148.58h78.65v19.86h-101.69Zm100.11-90.58c0-35.75,27.81-79.46,79.47-79.46,34.96,0,77.47,21.46,79.05,86.61,0,47.68-27.8,88.19-84.22,88.19-49.66,0-74.29-38.93-74.29-95.34h0Zm21.06,11.13c1.99,21.46,10.73,61.97,53.22,65.15,31.39,3.97,63.17-21.45,61.58-77.87-1.99-30.99-23.04-58-56.41-58-26.62,0-58.4,19.86-58.4,70.72h0Zm146.6-14.31c5.16-39.73,28.2-76.27,83.03-77.87,33.37,0,63.57,23.04,65.15,54.03h-21.06c-1.99-14.3-21.45-34.16-46.08-34.16-28.21,0-59.59,19.86-59.59,66.75,0,32.58,9.93,69.13,56.41,69.13,17.48,0,54.04-8.74,52.45-54.83h-50.85v-19.86h70.32v90.58h-15.88l-3.58-19.86c-52.45,50.05-137.47,19.86-130.3-73.9h0Zm-709.16,150.97h61.18c28.21,0,61.58,25.03,61.58,78.27,0,37.35-13.11,86.21-61.58,86.21h-61.18v-164.48Zm19.87,143.82h46.09c44.89,0,48.07-124.36-6.36-124.36h-39.73v124.36Zm126.33,20.66v-164.47h106.07v17.88h-86.21v52.84h82.64v19.86h-82.64v54.82h89.79v19.06h-109.65,0Zm170.04,0l-54.83-164.47h21.46l45.29,138.26,42.5-138.26h21.86l-54.83,164.47h-21.46,0Zm96.94,0v-164.47h19.86v164.47h-19.86,0Zm46.48-79.06c1.59-37.35,16.69-83.82,69.54-87,18.27,0,51.64,8.73,61.18,55.22h-21.06c-15.5-56.82-86.61-44.5-87.8,27.81,0,94.56,87.8,79.85,90.59,23.44h21.85c-3.56,30.19-27.02,64.37-63.17,64.37-48.08,1.98-71.12-38.15-71.12-83.84Zm160.11,79.06v-164.47h105.67v17.88h-86.22v52.84h82.64v19.86h-82.64v54.82h89.79v19.06h-109.25Zm125.94-52.84h20.26c0,51.25,74.29,49.66,79.07,14.31,5.16-53.23-99.32-12.71-94.16-85.02,1.59-23.04,19.48-42.51,54.43-42.51s58,17.88,56.41,49.65h-19.46c2.79-38.93-69.93-44.09-71.91-3.97,5.16,37.35,91.36,12.71,98.13,71.52,3.57,69.52-124.35,76.67-122.76-3.98h0Z"/>
  <path class="cls-1" d="m20.66,62.12v397.68h397.29V62.12H20.66Zm59.6,338.09V121.72l278.1,139.45L80.25,400.21Z"/>
</svg>