<?xml version="1.0" encoding="UTF-8"?>
<svg id="Layer_1" data-name="Layer 1" xmlns="http://www.w3.org/2000/svg" viewBox="0 0 151.94 21.54">
  <defs>
    <style>
      .cls-1 {
        fill: #ffdb70;
        stroke-width: 0px;
      }
    </style>
  </defs>
  <g id="Nav-IRELAND">
    <g id="BlackRock_Wordmark_Blk_RGB" data-name="BlackRock Wordmark Blk RGB">
      <path id="Shape" class="cls-1" d="m19.34,21.13V0h4.81v21.13h-4.81Zm93.55-7.89c0-5.11-3.96-8.27-8.6-8.27s-8.6,3.2-8.6,8.27,3.96,8.3,8.6,8.3,8.6-3.23,8.6-8.3Zm-4.75,0c0,2.67-1.79,4.17-3.87,4.17s-3.87-1.5-3.87-4.17,1.79-4.14,3.87-4.14,3.87,1.44,3.87,4.14Zm-90.73,1.82c0-2.38-1.23-4.2-3.43-5.02,2.08-1.14,2.82-2.64,2.82-4.4C16.78,2.55,14.55,0,9.57.03H0v21.13h9.98c5.02-.03,7.42-2.52,7.42-6.1Zm-5.72-8.8c0,1.44-.91,2.26-2.67,2.26h-3.99v-4.4h3.99c1.61,0,2.67.7,2.67,2.14Zm.44,8.48c0,1.38-.97,2.29-2.76,2.29h-4.34v-4.58h4.34c1.73,0,2.76.88,2.76,2.29Zm47.18-5.46c-1.32-2.76-3.79-4.28-7.51-4.28-4.4,0-8.33,2.76-8.33,8.25s3.46,8.3,8.27,8.3c3.37,0,6.22-1.35,7.57-4.25l-3.87-2c-.7,1.29-1.79,2.11-3.52,2.11-2.23,0-3.67-1.58-3.67-4.17s1.64-4.14,3.64-4.14c1.56,0,2.73.7,3.46,2.23l3.96-2.05Zm70.92,0c-1.32-2.76-3.79-4.28-7.51-4.28-4.4,0-8.33,2.76-8.33,8.25s3.46,8.3,8.27,8.3c3.37,0,6.22-1.35,7.57-4.25l-3.87-2c-.7,1.29-1.79,2.11-3.52,2.11-2.23,0-3.67-1.58-3.67-4.17s1.64-4.14,3.64-4.14c1.56,0,2.73.7,3.46,2.23l3.96-2.05Zm-40.35,11.85l-4.02-7.1h-3.08v7.1h-4.96V0h8.95c4.84,0,8.22,2.32,8.22,6.87,0,2.91-1.44,4.96-3.99,6.22l4.64,8.04h-5.75Zm-7.07-11.3h3.7c2.29,0,3.4-1.29,3.4-2.82,0-1.82-1.06-2.82-3.4-2.82h-3.7v5.63Zm-40.14,11.03v-3.32c-.21.06-.5.12-.82.12-.62,0-.94-.32-.94-.88v-5.49c0-4.11-2.76-6.28-7.31-6.28-2.96,0-5.49,1.09-7.07,2.49l2.67,2.99c1.06-.94,2.46-1.53,3.84-1.53,2.11,0,3.11,1.06,3.11,2.79v.5c-1-.23-2.26-.47-3.79-.47-3.84,0-6.34,1.85-6.34,4.9s2.08,4.78,5.31,4.78c2.2,0,4.17-.91,5.19-2.08.62,1.56,1.97,1.97,3.29,1.97.91.03,1.97-.12,2.85-.5Zm-6.48-4.96c0,1.44-1.38,2.38-2.96,2.38-1.5,0-2.23-.76-2.23-1.82,0-1.12.82-1.94,2.49-1.94,1.03,0,1.94.18,2.7.35v1.03Zm111.24,5.22l-5.66-9.83,5.31-5.78h-5.34l-5.6,6.22V.03h-4.78v21.13h4.78v-3.81l2.29-2.44,3.58,6.25h5.43v-.03Zm-70.86,0l-5.66-9.83,5.31-5.78h-5.4l-5.55,6.22V.03h-4.78v21.13h4.78v-3.81l2.29-2.44,3.58,6.25h5.43v-.03Zm73.8-2.93c1,0,1.58.62,1.58,1.56s-.59,1.56-1.58,1.56-1.58-.62-1.58-1.56.59-1.56,1.58-1.56Zm0,2.91c.79,0,1.32-.47,1.32-1.35s-.56-1.35-1.32-1.35-1.32.47-1.32,1.35c-.03.91.53,1.35,1.32,1.35Zm-.62-2.14h.65c.38,0,.59.21.59.5,0,.26-.12.41-.32.5l.29.56h-.29l-.26-.5h-.35v.5h-.29v-1.56Zm.29.23v.56h.32c.21,0,.32-.06.32-.26,0-.18-.09-.26-.29-.26h-.35v-.03Z"/>
    </g>
  </g>
</svg>