<?xml version="1.0" encoding="UTF-8"?>
<svg id="Layer_1" data-name="Layer 1" xmlns="http://www.w3.org/2000/svg" viewBox="0 0 533.33 533.33">
  <defs>
    <style>
      .cls-1 {
        fill: #ffdb70;
        stroke-width: 0px;
      }
    </style>
  </defs>
  <path class="cls-1" d="m266.66,0C119.38,0,0,119.38,0,266.66s119.38,266.68,266.66,266.68,266.68-119.4,266.68-266.68S413.93,0,266.66,0Zm-.12,32.88c129.28,0,234.08,104.8,234.08,234.08s-104.8,234.08-234.08,234.08S32.46,396.23,32.46,266.96,137.26,32.88,266.54,32.88h0Z"/>
  <path class="cls-1" d="m133.76,175.5v181.56h73.87c33.58,0,59.38-20.96,59.38-54.16,0-29.28-22.86-40.45-22.86-40.45,0,0,17.54-11.2,17.54-36.12,0-28.94-22.85-50.82-56.54-50.82h-71.39Zm40.86,35.49h21.83c15.51,0,22.28,7.97,22.28,17.82,0,10.69-7.66,17.44-21.25,17.44h-22.86v-35.26Zm0,71.64h21.83c15.51,0,22.28,7.97,22.28,17.82,0,10.69-7.66,17.44-21.25,17.44h-22.86v-35.26Zm147.19,73.87v-139.35h-40.85v-41.97h127.04v41.97h-42.53v139.35h-43.65Z"/>
</svg>