<?xml version="1.0" encoding="UTF-8"?>
<svg id="Layer_1" data-name="Layer 1" xmlns="http://www.w3.org/2000/svg" viewBox="0 0 500 210.49">
  <defs>
    <style>
      .cls-1 {
        fill: #460024;
      }

      .cls-1, .cls-2, .cls-3, .cls-4, .cls-5, .cls-6 {
        stroke-width: 0px;
      }

      .cls-2 {
        fill: #d91a31;
      }

      .cls-3 {
        fill: none;
      }

      .cls-4 {
        fill: #ffdb70;
      }

      .cls-5 {
        fill: #790023;
      }

      .cls-6 {
        fill: #5d5d5f;
      }
    </style>
  </defs>
  <polygon class="cls-4" points="351.01 166.91 335.99 83.35 333.01 83.35 319.05 83.35 318.47 83.35 295.22 148.71 271.97 83.35 271.68 83.35 257.44 83.35 254.74 83.35 239.72 166.91 256.28 166.91 266.82 109.73 287.57 168.07 288.34 168.07 302.1 168.07 302.87 168.07 323.81 109.2 334.45 166.91 351.01 166.91"/>
  <polygon class="cls-4" points="414.93 96.44 414.93 83.35 379.51 83.35 364.87 83.35 364.87 96.44 364.87 120.7 364.87 131.87 364.87 166.91 379.51 166.91 379.51 131.87 405.31 131.87 405.31 120.7 379.51 120.7 379.51 96.44 414.93 96.44"/>
  <path class="cls-4" d="m480.97,85.27s-50.68-14.58-54.92,19.3c0,0-1.5,19.6,25.07,27.3,26.57,7.7,14.07,35.81-20.2,21.95l-6.93,11.42s17.71,8.33,35.61,5.14c10.31-1.84,21.76-7.63,23.48-22.72,0,0,.66-7.41-4.14-15.09-3.39-5.43-9.51-10.99-20.51-14.18-26.57-7.7-18.11-33.89,16.16-20.03l6.55-13.09h-.18.01Z"/>
  <polygon class="cls-3" points="65.2 101.35 20.91 121.19 71.54 166.44 80.79 132.53 117.29 106.51 148.78 106.51 106.66 48.9 65.2 101.35"/>
  <polygon class="cls-1" points="71.54 166.44 120.83 210.49 116.94 145.64 80.79 132.53 71.54 166.44"/>
  <polygon class="cls-2" points="80.79 132.53 116.94 145.64 117.29 106.51 80.79 132.53"/>
  <polygon class="cls-5" points="148.78 106.51 117.29 106.51 116.94 145.64 196.31 171.51 148.78 106.51"/>
  <polygon class="cls-5" points="148.78 106.51 151.31 106.51 208.36 106.51 129.69 17.01 106.66 48.9 148.78 106.51"/>
  <polygon class="cls-1" points="148.78 106.51 196.31 171.51 208.36 106.51 151.31 106.51 148.78 106.51"/>
  <polygon class="cls-2" points="129.69 17.01 70.87 0 106.66 48.9 129.69 17.01"/>
  <polygon class="cls-5" points="106.66 48.9 70.87 0 37.56 86.11 65.2 101.35 106.66 48.9"/>
  <polygon class="cls-1" points="65.2 101.35 37.56 86.11 0 118 20.91 121.19 65.2 101.35"/>
  <polygon class="cls-2" points="20.91 121.19 0 118 59.53 210.49 71.54 166.44 20.91 121.19"/>
  <polygon class="cls-5" points="59.53 210.49 120.83 210.49 71.54 166.44 59.53 210.49"/>
  <path class="cls-4" d="m500,85.85c0,3.28-2.64,5.87-5.98,5.87s-6.02-2.6-6.02-5.87,2.67-5.84,6.05-5.84,5.95,2.56,5.95,5.84Zm-10.5,0c0,2.6,1.96,4.66,4.56,4.66,2.53.04,4.45-2.06,4.45-4.63s-1.92-4.7-4.52-4.7-4.49,2.1-4.49,4.66h0Zm3.59,3.03h-1.35v-5.84c.54-.07,1.28-.18,2.24-.18,1.1,0,1.6.18,1.99.46.36.25.61.68.61,1.25,0,.71-.54,1.17-1.21,1.39v.07c.57.18.85.64,1.03,1.43.18.89.32,1.21.43,1.42h-1.42c-.18-.21-.28-.71-.46-1.42-.11-.61-.47-.89-1.21-.89h-.64v2.31h0Zm.04-3.28h.64c.75,0,1.36-.25,1.36-.86,0-.53-.4-.89-1.25-.89-.36,0-.61.04-.75.07v1.67h0Z"/>
  <g>
    <path class="cls-6" d="m137.52,201.58h-2.96v-1.07h7.21v1.07h-2.98v8.67h-1.27v-8.67Z"/>
    <path class="cls-6" d="m151.06,205.97c-.07-1.36-.16-3.01-.16-4.2h-.03c-.35,1.13-.74,2.35-1.23,3.7l-1.72,4.72h-.95l-1.59-4.64c-.46-1.39-.84-2.63-1.11-3.78h-.03c-.03,1.22-.1,2.83-.19,4.31l-.26,4.17h-1.2l.68-9.74h1.6l1.66,4.71c.4,1.2.72,2.27.98,3.28h.03c.26-.98.61-2.05,1.04-3.28l1.73-4.71h1.6l.61,9.74h-1.24l-.23-4.28h0Z"/>
  </g>
</svg>