<?xml version="1.0" encoding="UTF-8"?>
<svg id="Layer_1" data-name="Layer 1" xmlns="http://www.w3.org/2000/svg" viewBox="0 0 1080.45 249.52">
  <defs>
    <style>
      .cls-1 {
        fill: #eb7b30;
      }

      .cls-1, .cls-2, .cls-3, .cls-4, .cls-5 {
        fill-rule: evenodd;
        stroke-width: 0px;
      }

      .cls-2 {
        fill: #00984a;
      }

      .cls-3 {
        fill: #df002c;
      }

      .cls-4 {
        fill: #ffdb70;
      }

      .cls-5 {
        fill: #0096d6;
      }
    </style>
  </defs>
  <path class="cls-4" d="m277.32,162.3h25.01c9.76,0,13.47,3.37,13.47,11.61s-3.71,11.3-13.47,11.3h-25.01v-22.92Zm-38.74,83.4h38.74v-33.91h41.5c27.47,0,37.36-16.18,37.36-37.11,0-24.29-10.17-38.03-37.64-38.03h-79.96v109.05Zm130.38-109.05h104.27v26.57h-65.53v14.66h60.86v26.58h-60.86v14.66h65.53v26.58h-104.27v-109.05Zm159.22,25.65h25c9.75,0,13.47,3.37,13.47,11.61s-3.71,11.3-13.47,11.3h-25v-22.92Zm-38.74,83.4h38.74v-33.91h41.49c27.48,0,37.37-16.18,37.37-37.11,0-24.29-10.17-38.03-37.65-38.03h-79.95v109.05Zm155.1-46.28c-18.96-3.21-26.78-15.43-26.78-30.7,0-28.26,24.87-35.89,56.73-35.89,43.68,0,61.68,12.67,63.06,35.74h-45.06c0-4.43-2.34-7.19-5.9-8.71-3.44-1.68-7.83-2.29-12.09-2.29-11.54,0-15.52,3.2-15.52,7.79,0,3.05,1.23,5.04,5.08,5.65l46.3,7.63c19.51,3.21,31.6,13.29,31.6,31.77,0,26.59-19.51,39.11-63.06,39.11-29.81,0-62.37-4.58-62.51-36.66h46.71c.13,3.66,1.37,6.1,4.12,7.79,2.88,1.53,7.14,2.3,13.18,2.3,12.09,0,15.39-3.67,15.39-8.86,0-3.21-1.79-6.41-7-7.32l-44.24-7.34Zm110.04-62.77h38.74v109.05h-38.74v-109.05Zm182.31,66.59c-2.47,14.36-6.88,25.97-16.49,33.91-9.47,7.94-24.32,12.37-47.94,12.37s-67.04-1.84-67.04-58.34,43.55-58.35,67.04-58.35,59.35,3.36,64.43,46.59h-43.69c-1.1-7.8-5.78-19.1-20.75-19.1-15.81,0-25.83,8.71-25.83,30.86s9.76,30.85,23.91,30.85c12.23,0,19.51-5.65,22.67-18.78h43.69,0Zm50.69-12.06c0-22.16,10.03-30.86,25.83-30.86s25.83,8.71,25.83,30.86-10.03,30.85-25.83,30.85c-15.8,0-25.83-8.7-25.83-30.85h0Zm-41.22,0c0,56.5,43.55,58.34,67.05,58.34s67.04-1.84,67.04-58.34-43.55-58.35-67.04-58.35-67.05,1.83-67.05,58.35h0Zm-766.32-53.45c2.5-52.32-42.62-111.24-104.13-118.53l.11-.71c60.64,0,107.13,56.14,107.13,100.43-.06,9.22-.79,14.93-2.08,19.08l-1.02-.27Zm-3.67,6.65c-4.03,4.93-9.11,9.89-15.05,14.61-10.94-62.9-57.16-117.9-89.84-133.96l-.7.49c32.86,26.97,72.06,79.36,87.31,135.94-7.78,5.71-16.17,10.52-25.04,14.34-31.01-35.37-59.93-103.57-69.24-146.85l-.95.29c.21,42.01,30.04,113.34,66.41,148.14-8.34,3.3-17.02,5.7-25.87,7.15-34.87-13.81-59.69-58.06-59.69-103.38,0-29.59,9.02-47.89,10.77-51.63l-.74-.29c-2.11,3.19-15.33,21.49-15.33,53.43,0,51.23,25.26,90.39,58.81,102.72-11.99,1.32-24.12.75-35.94-1.69l-.25.78c3.59,1.32,15.76,6.43,34.33,6.43,42,0,70.4-26.1,81.83-45.94l-.82-.55Z"/>
  <path class="cls-5" d="m91.15,0C59.31,0,21.97,22.98,21.97,43.99c0,8.13,7.43,14.99,22.82,14.99,35.71,0,68.89-24.54,68.89-43.62C113.69,5.32,104.04,0,91.15,0Zm12.71,14.77c0,16.08-30.88,35.74-56.7,35.74-11.41,0-17.57-4.49-17.57-11.9C29.6,22.3,60.83,2.98,85.05,2.98c15.79,0,18.82,8.03,18.82,11.79Z"/>
  <path class="cls-1" d="m9.29,53.71c-.9,1.55-4.48,8.57-4.48,15.76,0,13.34,13.48,25.72,38.26,25.72,47.68,0,102.77-35.1,102.77-67.68,0-14.62-13.84-22.58-23.46-24.22l-.18.57c2.99.95,13.94,6.04,13.94,19.06,0,25.96-48.64,61.33-97.09,61.33-18.55,0-30.23-9.16-30.23-22.49,0-4.22.88-7,1.11-7.8l-.65-.25Z"/>
  <path class="cls-2" d="m165.5,29.95c1.31.99,9.16,7.54,9.16,19.92,0,42.2-66.13,83.71-124.59,83.71C15.21,133.57-.68,116.36.02,101.07h.62c1.37,7.94,12.69,22.14,43.2,22.14,58.53,0,123.89-42.94,123.89-80.57,0-6.45-1.75-10.48-2.74-12.26l.51-.44Z"/>
  <path class="cls-3" d="m187.6,69.35c.27.9,1.7,4.94,1.7,11.27,0,46.95-66.92,87.14-125.12,87.14-29.96,0-45.6-14.55-48.9-20.46l.53-.39c8.29,7.25,24.62,12.76,43.67,12.76,51.4,0,128.11-39.11,127.42-90.14l.71-.17Z"/>
</svg>