<?xml version="1.0" encoding="UTF-8"?>
<svg id="Layer_1" data-name="Layer 1" xmlns="http://www.w3.org/2000/svg" viewBox="0 0 246.26 131.61">
  <defs>
    <style>
      .cls-1 {
        fill: #ffdb70;
        stroke-width: 0px;
      }
    </style>
  </defs>
  <path class="cls-1" d="m116.14,2.02h-17.98v40.64h17.98V2.02Zm59,8.74v6.46h6.2v19.12c0,3.42,2.91,6.33,6.33,6.33h34.06v-19.12h-18.11v12.54s-.63.38-1.39.38c-1.65,0-3.04-1.39-3.04-3.04v-16.21h22.54v-6.46h-22.41v-6.33h-18.11v6.33h-6.08Zm-9.62,31.91h.25c3.29-.25,5.95-2.91,5.95-6.33v-18.23c0-3.42-2.66-6.08-5.95-6.33h-36.72c-3.29.25-5.95,2.91-5.95,6.33v18.23c0,3.42,2.66,6.08,5.95,6.33h36.47Zm-11.65-8.61c0,1.77-1.39,3.16-3.04,3.16h-6.84c-1.65,0-3.04-1.39-3.04-3.16v-13.93c0-1.77,1.39-3.17,3.04-3.17h6.84c1.65,0,3.04,1.39,3.04,3.17v13.93Zm-62.55-22.41h-18.11v31.15h18.11V11.65Zm0-9.62h-18.11v5.57h18.11V2.02ZM60.05,0H18.26v55.84h18.11v-17.6h23.68c3.55,0,6.33-2.78,6.33-6.33V6.33c0-2.79-2.41-6.33-6.33-6.33m-11.65,29.88c0,1.65-1.39,3.04-2.91,3.04h-9.12V5.57h8.99c1.65,0,3.04,1.39,3.04,3.04v21.27h0Zm183.59,7.72c2.15,0,3.92,1.77,3.92,3.92,0,2.28-1.77,3.92-3.92,3.92s-3.92-1.77-3.92-3.92,1.77-3.92,3.92-3.92Zm0,.63c-1.77,0-3.17,1.52-3.17,3.29,0,1.9,1.39,3.42,3.17,3.42s3.17-1.52,3.17-3.29c0-1.9-1.39-3.42-3.17-3.42Zm-.76,5.7h-.63v-4.43c.38,0,.76-.13,1.27-.13.63,0,1.14.13,1.39.38.25.25.38.51.38.89,0,.63-.38.89-.89,1.01.38.13.63.38.76,1.01s.25,1.01.25,1.14h-.76c-.13-.13-.25-.51-.25-1.14-.13-.51-.38-.76-1.01-.76h-.51v2.03Zm0-2.53h.51c.63,0,1.14-.25,1.14-.76,0-.38-.25-.76-1.14-.76h-.51v1.52Zm11.11,79.49c2.15,0,3.92,1.77,3.92,3.92,0,2.28-1.77,3.92-3.92,3.92s-3.92-1.77-3.92-3.92c-.13-2.15,1.65-3.92,3.92-3.92Zm0,.63c-1.77,0-3.16,1.52-3.16,3.29,0,1.9,1.39,3.42,3.16,3.42s3.16-1.52,3.16-3.29c0-1.9-1.39-3.42-3.16-3.42Zm-.76,5.57h-.76v-4.43c.38,0,.76-.13,1.27-.13.63,0,1.14.13,1.39.38s.38.51.38.89c0,.63-.38.89-.89,1.01.38.13.63.38.76,1.01s.25,1.01.25,1.14h-.76c-.13-.13-.25-.51-.25-1.14-.13-.51-.38-.76-1.01-.76h-.51v2.03h.13Zm0-2.41h.51c.63,0,1.14-.25,1.14-.76,0-.38-.25-.76-1.14-.76h-.51v1.52ZM15.57,100.13l2.15-7.6h17.47l1.77-7.6H9.75L0,123.05h9.88l3.92-15.19h16.84l1.9-7.6H15.57v-.13h0Zm66.22-15.19l-9.62,13.29-4.43-13.29h-9.88l7.22,20.89-4.3,17.22h9.88l4.05-16.08,18.11-22.03h-11.02Zm13.29,0l-9.62,38.11h9.88l9.62-38.11h-9.88Zm36.97,0l-5.57,23.55-6.08-23.55h-9.75l-9.75,38.11h9.12l5.7-23.42,5.95,23.42h9.75l9.75-38.11h-9.12Zm-89.64,31.53l7.72-31.53h-9.88l-9.62,38.11h25.32l2.03-6.58h-15.57Zm148.39,4.94c-1.14-2.66-1.01-4.94-.63-7.22l.38-2.91s-.76-.38-2.03-.51c-.89-.13-2.79-.13-5.19-.13-2.53,0-3.04.51-3.04.51,0,0-.25.25-.63,3.04-.25,2.28-.38,4.56.63,7.22,1.39,3.42,3.29,4.94,6.46,6.2,2.66,1.14,5.82,1.77,8.48,1.65,1.27-.13,2.79-.38,3.54-.76-.38-.13-.89-.13-1.39-.25-3.16-1.14-5.19-3.42-6.58-6.84m43.93-23.68l-21.65-7.34s2.91-15.07,3.42-18.49c1.27-7.47,1.14-14.94,1.14-15.7v-.13c-.89.89-4.56,5.57-7.09,10.51-24.44-2.28-35.83,13.93-38.49,18.86-2.41-1.52-5.57-2.53-9.5-2.53h-.76c-14.69,0-21.02,13.55-21.4,23.3-.51,12.92,7.72,17.6,14.56,17.6h.63c4.18,0,6.58-1.65,8.36-3.42l-.63,2.41h8.86l5.32-21.78h-16.84l-1.9,8.74h7.72c-.76,2.15-1.52,3.8-3.8,5.44-1.39,1.01-3.04,1.27-4.56,1.39-1.39-.13-2.79-.51-3.8-1.27-2.79-1.9-3.67-5.57-3.54-9.12.25-6.71,3.92-15.32,11.02-15.57.89,0,2.15.25,3.42,1.01,2.15,1.27,2.53,2.91,2.91,4.68l9.62-2.41c5.57-24.82,26.59-25.32,31.53-25.07-.76,1.65-1.52,3.42-2.03,5.19l-4.43,15.32-25.2,8.61-.13,2.15h23.3l-3.92,16.97c-.76,3.29-1.9,4.18-3.67,4.56,2.15,7.72,11.78,2.91,12.53,0,.38-1.27,5.32-21.9,5.32-21.9l23.68-.13c.13.13.13-1.14,0-1.89m-15.57-28.87c-.13.25-.25.63-.38,1.14,14.94,6.2,21.9,23.93,15.57,39.88-.63,1.52-1.27,2.91-2.15,4.3-2.66,4.94-6.08,8.23-9.88,10.51-4.56,3.04-9.88,4.68-15.32,4.94.25.51.51,1.01.76,1.39,5.57,1.52,22.03,1.39,31.15-17.6.13-.38.38-.76.51-1.14.13-.51.38-1.01.51-1.52,5.83-17.73-3.92-36.08-20.76-41.91"/>
</svg>