<?xml version="1.0" encoding="UTF-8"?>
<svg id="Layer_1" data-name="Layer 1" xmlns="http://www.w3.org/2000/svg" viewBox="0 0 968.23 734.88">
  <defs>
    <style>
      .cls-1 {
        fill: #f3bc87;
      }

      .cls-1, .cls-2, .cls-3, .cls-4, .cls-5, .cls-6, .cls-7, .cls-8, .cls-9, .cls-10, .cls-11, .cls-12, .cls-13 {
        stroke-width: 0px;
      }

      .cls-2 {
        fill: #c14303;
      }

      .cls-3 {
        fill: #c22303;
      }

      .cls-4 {
        fill: #ad1b02;
      }

      .cls-5 {
        fill: #e669a2;
      }

      .cls-6 {
        fill: #ee9c34;
      }

      .cls-7 {
        fill: #f3be26;
      }

      .cls-8 {
        fill: #e88d14;
      }

      .cls-9 {
        fill: #ffdb70;
      }

      .cls-10 {
        fill: #db4e18;
      }

      .cls-11 {
        fill: #d1390d;
      }

      .cls-12 {
        fill: #e3721c;
      }

      .cls-13 {
        fill: #d85604;
      }
    </style>
  </defs>
  <path class="cls-5" d="m968.23,315.55h-352.18v-90.14h352.18v90.14Z"/>
  <path class="cls-7" d="m922.49,315.55h-306.44V90.1h306.44v225.46Z"/>
  <path class="cls-6" d="m795.89,315.55h-179.83V0h179.83v315.55Z"/>
  <path class="cls-1" d="m831.27,315.55h-215.21V35.21h215.21v280.34h0Z"/>
  <path class="cls-12" d="m616,35.26v280.26h179.86V35.26h-179.86Z"/>
  <path class="cls-4" d="m435.72,315.55h180.33v45.08h-180.33v-45.08Z"/>
  <path class="cls-8" d="m616,90.05v225.48h215.37V90.05h-215.37Z"/>
  <path class="cls-13" d="m616,90.05v225.48h179.86V90.05h-179.86Z"/>
  <path class="cls-2" d="m728.51,315.55h-112.46v-135.32h112.46v135.32h0Z"/>
  <path class="cls-10" d="m616,225.47v90.05h306.59v-90.05h-306.59Z"/>
  <path class="cls-11" d="m616,225.47v90.05h215.37v-90.05h-215.37Z"/>
  <path class="cls-3" d="m616,225.47v90.05h179.86v-90.05h-179.86Z"/>
  <path class="cls-4" d="m616,225.47v90.05h112.62v-90.05h-112.62Z"/>
  <path class="cls-9" d="m655.26,485.33c-30.68,5.46-47.05,28.64-47.05,68.87s21.82,68.19,53.87,68.19c15.68,0,29.32-5.46,57.96-19.77v33.41c-34.77,16.36-55.23,20.45-82.5,20.45-30.68,0-52.5-7.5-69.55-25.91-17.73-17.73-27.27-40.91-27.27-67.51,0-57.96,43.64-98.19,107.05-98.19,41.59,0,70.91,19.77,70.91,47.73,0,18.41-13.64,31.37-33.41,31.37-10.23,0-18.41-3.41-30-9.55m-153.42,28.64c27.96-34.77,38.18-49.09,38.18-66.14s-13.64-32.05-32.73-32.05c-10.91,0-21.14,6.14-25.91,11.59v71.59l-45.69,61.37v-139.1h-43.64l-72.28,119.33v-119.33h-24.55l-66.14,15v17.05l36.14,3.41v147.96h45.68l69.55-114.55v114.55h51.14m-340.93-23.18h10.23c36.82,0,57.27-22.5,57.27-67.51,0-37.5-16.36-57.96-47.05-57.96-4.09,0-10.23.68-20.45,2.73v122.73h0Zm0,80.46l30,6.82v17.05H2.73v-17.05l27.27-6.82v-205.92H0v-17.05l71.59-21.82h19.09v24.55c33.41-20.46,45-23.87,62.73-23.87,39.55,0,69.55,36.82,69.55,87.96,0,58.64-40.23,98.87-101.6,98.87-6.82,0-18.41-.68-30.68-1.36"/>
</svg>